<svg width="31" height="31" viewBox="0 0 31 31" fill="none" xmlns="http://www.w3.org/2000/svg">
<path d="M22.9395 19.9343C24.4691 17.6574 25.0964 14.8927 24.699 12.1787C24.3017 9.46465 22.9082 6.99576 20.7901 5.25298C18.6719 3.51021 15.9809 2.61838 13.2411 2.75125C10.5014 2.88412 7.90927 4.03218 5.96973 5.97174C4.03018 7.91131 2.88215 10.5035 2.74929 13.2432C2.61644 15.9829 3.50828 18.674 5.25106 20.7921C6.99385 22.9103 9.46275 24.3037 12.1768 24.7011C14.8908 25.0984 17.6555 24.4711 19.9323 22.9415L24.1063 27.1155C24.5051 27.5143 25.046 27.7383 25.6099 27.7383C26.1739 27.7383 26.7147 27.5143 27.1135 27.1155C27.5123 26.7167 27.7363 26.1758 27.7363 25.6119C27.7363 25.0479 27.5123 24.5071 27.1135 24.1083L22.9395 19.9343ZM13.7858 22.2659C12.1089 22.2659 10.4698 21.7686 9.07555 20.837C7.68133 19.9054 6.59466 18.5813 5.95298 17.0321C5.31129 15.4829 5.1434 13.7783 5.47053 12.1337C5.79767 10.489 6.60514 8.97837 7.79083 7.79268C8.97653 6.60699 10.4872 5.79952 12.1318 5.47239C13.7764 5.14526 15.4811 5.31316 17.0303 5.95486C18.5794 6.59655 19.9035 7.68323 20.8351 9.07746C21.7667 10.4717 22.264 12.1109 22.264 13.7877C22.2614 16.0355 21.3674 18.1905 19.7779 19.7799C18.1885 21.3693 16.0335 22.2633 13.7858 22.2659Z" fill="white"/>
</svg>
